<svg width="608" height="105" viewBox="0 0 608 105" fill="none" xmlns="http://www.w3.org/2000/svg">
<rect width="608" height="105" fill="#D9D9D9"/>
<path d="M39 13H54.7184L83.1219 39.6539V60.4L56.373 35.2574V92H39V13ZM134 13H118.419L89.8781 39.6539V60.4L116.627 35.2574V92H134V13Z" fill="#6A31B4"/>
<path d="M74.8491 68.3382V57.1776L60.4482 43.7604V54.8389L74.8491 68.3382Z" fill="#C99EFF"/>
<path d="M98.1356 68.3382V57.1776L112.537 43.7604V54.8389L98.1356 68.3382Z" fill="#C99EFF"/>
<path d="M67.8467 73.3165C68.9254 77.3279 71.2781 80.8837 74.553 83.4524C77.8279 86.021 81.8492 87.4645 86.0156 87.5671C90.1821 87.6696 94.27 86.4257 97.6682 84.0214C101.066 81.617 103.592 78.1813 104.869 74.2278L100.91 72.9591C99.9088 76.0609 97.927 78.7566 95.2608 80.643C92.5946 82.5295 89.3873 83.5054 86.1183 83.425C82.8494 83.3445 79.6943 82.212 77.1249 80.1966C74.5554 78.1813 72.7095 75.3914 71.8632 72.2441L67.8467 73.3165Z" fill="#C99EFF"/>
<path d="M168.91 46C173.016 46 176.528 46.7856 179.445 48.3569C182.417 49.9282 184.713 52.2038 186.334 55.1837C187.955 58.1637 188.766 61.821 188.766 66.1555V72.0071H160.238C160.346 75.4205 161.345 78.1025 163.236 80.053C165.182 82.0035 167.856 82.9788 171.26 82.9788C174.123 82.9788 176.717 82.7079 179.04 82.1661C181.364 81.5701 183.768 80.6761 186.253 79.4841V88.8304C184.092 89.914 181.796 90.6996 179.364 91.1873C176.987 91.7291 174.096 92 170.693 92C166.262 92 162.345 91.1873 158.941 89.5618C155.537 87.8822 152.863 85.3628 150.918 82.0035C148.973 78.6443 148 74.4181 148 69.3251C148 64.1237 148.864 59.8163 150.593 56.4028C152.376 52.9352 154.835 50.3345 157.969 48.6007C161.102 46.8669 164.749 46 168.91 46ZM168.991 54.6148C166.667 54.6148 164.722 55.3734 163.155 56.8905C161.643 58.4075 160.751 60.7644 160.481 63.9611H177.419C177.419 62.1731 177.095 60.5748 176.447 59.1661C175.852 57.7574 174.934 56.6466 173.691 55.8339C172.449 55.0212 170.882 54.6148 168.991 54.6148Z" fill="#6A31B4"/>
<path d="M256.748 46.8127V91.1873H245.483V69.4064C245.483 67.2391 245.51 65.126 245.564 63.0671C245.672 61.0082 245.807 59.1119 245.969 57.3781H245.726L233.488 91.1873H224.411L212.011 57.2968H211.687C211.903 59.0848 212.038 61.0082 212.092 63.0671C212.2 65.0718 212.254 67.2933 212.254 69.7315V91.1873H200.989V46.8127H218.089L229.111 76.8834L240.296 46.8127H256.748Z" fill="#6A31B4"/>
<path d="M312 68.9187C312 72.6031 311.487 75.881 310.46 78.7527C309.488 81.6243 308.056 84.0624 306.165 86.0671C304.328 88.0177 302.086 89.5077 299.438 90.5371C296.791 91.5124 293.792 92 290.442 92C287.362 92 284.499 91.5124 281.851 90.5371C279.258 89.5077 277.016 88.0177 275.125 86.0671C273.234 84.0624 271.748 81.6243 270.667 78.7527C269.641 75.881 269.127 72.6031 269.127 68.9187C269.127 63.9882 269.992 59.8433 271.721 56.4841C273.45 53.0707 275.935 50.47 279.177 48.682C282.419 46.894 286.255 46 290.685 46C294.846 46 298.52 46.894 301.707 48.682C304.895 50.47 307.408 53.0707 309.245 56.4841C311.082 59.8433 312 63.9882 312 68.9187ZM281.446 68.9187C281.446 71.8445 281.743 74.3098 282.338 76.3145C282.986 78.265 283.986 79.755 285.336 80.7845C286.687 81.7597 288.443 82.2474 290.604 82.2474C292.765 82.2474 294.494 81.7597 295.791 80.7845C297.142 79.755 298.114 78.265 298.709 76.3145C299.357 74.3098 299.681 71.8445 299.681 68.9187C299.681 65.9929 299.357 63.5548 298.709 61.6042C298.114 59.6537 297.142 58.1908 295.791 57.2156C294.44 56.2403 292.684 55.7527 290.523 55.7527C287.335 55.7527 285.012 56.8634 283.553 59.0848C282.149 61.2521 281.446 64.53 281.446 68.9187Z" fill="#6A31B4"/>
<path d="M364.042 91.1873H351.967V55.9152H340.864C340.323 62.417 339.648 67.9706 338.837 72.576C338.081 77.1272 337.108 80.8386 335.92 83.7102C334.785 86.5819 333.326 88.6949 331.543 90.0495C329.76 91.3498 327.572 92 324.979 92C323.574 92 322.304 91.8916 321.17 91.6749C320.035 91.4582 319.008 91.1331 318.09 90.6996V81.0283C318.684 81.245 319.306 81.4346 319.954 81.5972C320.602 81.7597 321.278 81.841 321.98 81.841C322.736 81.841 323.439 81.543 324.087 80.947C324.79 80.351 325.438 79.2945 326.032 77.7774C326.681 76.2603 327.275 74.1743 327.815 71.5194C328.356 68.8645 328.842 65.5324 329.274 61.523C329.76 57.4594 330.193 52.556 330.571 46.8127H364.042V91.1873Z" fill="#6A31B4"/>
<path d="M419.277 68.9187C419.277 72.6031 418.764 75.881 417.737 78.7527C416.765 81.6243 415.333 84.0624 413.442 86.0671C411.605 88.0177 409.363 89.5077 406.715 90.5371C404.068 91.5124 401.069 92 397.719 92C394.639 92 391.776 91.5124 389.128 90.5371C386.535 89.5077 384.293 88.0177 382.402 86.0671C380.511 84.0624 379.025 81.6243 377.944 78.7527C376.918 75.881 376.404 72.6031 376.404 68.9187C376.404 63.9882 377.269 59.8433 378.998 56.4841C380.727 53.0707 383.212 50.47 386.454 48.682C389.696 46.894 393.532 46 397.962 46C402.123 46 405.797 46.894 408.984 48.682C412.172 50.47 414.685 53.0707 416.522 56.4841C418.359 59.8433 419.277 63.9882 419.277 68.9187ZM388.723 68.9187C388.723 71.8445 389.02 74.3098 389.615 76.3145C390.263 78.265 391.263 79.755 392.613 80.7845C393.964 81.7597 395.72 82.2474 397.881 82.2474C400.042 82.2474 401.771 81.7597 403.068 80.7845C404.419 79.755 405.391 78.265 405.986 76.3145C406.634 74.3098 406.958 71.8445 406.958 68.9187C406.958 65.9929 406.634 63.5548 405.986 61.6042C405.391 59.6537 404.419 58.1908 403.068 57.2156C401.717 56.2403 399.961 55.7527 397.8 55.7527C394.612 55.7527 392.289 56.8634 390.83 59.0848C389.425 61.2521 388.723 64.53 388.723 68.9187Z" fill="#6A31B4"/>
<path d="M462.242 46.8127V55.9152H443.764V91.1873H431.688V46.8127H462.242Z" fill="#6A31B4"/>
<path d="M484.492 64.3675C484.492 65.2886 484.438 66.4264 484.33 67.7809C484.276 69.1355 484.195 70.5171 484.087 71.9258C484.033 73.3345 483.952 74.5807 483.844 75.6643C483.736 76.7479 483.655 77.5065 483.601 77.9399L504.024 46.8127H518.531V91.1873H506.861V73.47C506.861 72.0071 506.915 70.4087 507.023 68.6749C507.131 66.8869 507.239 65.2344 507.347 63.7173C507.509 62.1461 507.617 60.9541 507.671 60.1413L487.329 91.1873H472.822V46.8127H484.492V64.3675Z" fill="#6A31B4"/>
<path d="M540.31 91.1873H527.262L539.175 73.6325C537.663 72.9823 536.231 72.1154 534.88 71.0318C533.583 69.894 532.53 68.4582 531.719 66.7244C530.909 64.9906 530.504 62.9317 530.504 60.5477C530.504 56.1048 532.179 52.7185 535.528 50.3887C538.878 48.0047 543.174 46.8127 548.415 46.8127H569V91.1873H556.924V74.689H550.279L540.31 91.1873ZM542.336 60.629C542.336 62.4711 543.066 63.934 544.524 65.0177C545.983 66.0471 547.874 66.5618 550.198 66.5618H556.924V55.3463H548.658C546.497 55.3463 544.903 55.8881 543.876 56.9717C542.849 58.0012 542.336 59.2203 542.336 60.629Z" fill="#6A31B4"/>
</svg>
